<svg width="24" height="20" fill="none" xmlns="http://www.w3.org/2000/svg"><g filter="url(#filter0_d)"><mask id="a" fill="#fff"><path d="M18.5 0h-13C4.673 0 4 .628 4 1.4v8.402c0 .772.673 1.4 1.5 1.4h13c.827 0 1.5-.628 1.5-1.4V1.4c0-.772-.673-1.4-1.5-1.4zm0 .933c.068 0 .133.014.192.037L12 6.384 5.308.97A.529.529 0 015.5.933h13zm0 9.335h-13c-.276 0-.5-.209-.5-.466V1.956l6.672 5.398a.52.52 0 00.328.114.52.52 0 00.328-.114L19 1.956v7.846c0 .257-.224.466-.5.466z"/></mask><path d="M18.5 0h-13C4.673 0 4 .628 4 1.4v8.402c0 .772.673 1.4 1.5 1.4h13c.827 0 1.5-.628 1.5-1.4V1.4c0-.772-.673-1.4-1.5-1.4zm0 .933c.068 0 .133.014.192.037L12 6.384 5.308.97A.529.529 0 015.5.933h13zm0 9.335h-13c-.276 0-.5-.209-.5-.466V1.956l6.672 5.398a.52.52 0 00.328.114.52.52 0 00.328-.114L19 1.956v7.846c0 .257-.224.466-.5.466z" fill="#2196F3"/><path d="M18.692.97l.672.83L20.796.641 19.08-.026l-.387.996zM12 6.384l-.672.83.672.544.672-.544-.672-.83zM5.308.97l-.387-.997-1.718.668L4.636 1.8 5.308.97zM5 1.956l.672-.831-1.74-1.409v2.24H5zm6.672 5.398l-.672.83v.002l.672-.832zm.656 0l.671.831-.671-.831zM19 1.956h1.069v-2.24l-1.741 1.409.672.83zm0 7.846h1.069H19zm-.5-10.87h-13v2.137h13V-1.07zm-13 0C4.153-1.069 2.931-.03 2.931 1.4H5.07c0-.114.124-.331.431-.331V-1.07zM2.931 1.4v8.402H5.07V1.4H2.93zm0 8.402c0 1.43 1.222 2.469 2.569 2.469v-2.138c-.307 0-.431-.217-.431-.331H2.93zM5.5 12.27h13v-2.138h-13v2.138zm13 0c1.347 0 2.569-1.039 2.569-2.47H18.93c0 .115-.124.332-.431.332v2.138zm2.569-2.47v-8.4H18.93v8.4h2.138zm0-8.4c0-1.431-1.222-2.47-2.569-2.47V1.07c.307 0 .431.217.431.331h2.138zm-2.569.601a.541.541 0 01-.196-.036l.775-1.992a1.596 1.596 0 00-.579-.11v2.138zM18.02.14l-6.692 5.414 1.344 1.661L19.364 1.8 18.019.14zm-5.348 5.414L5.981.139 4.636 1.8l6.692 5.413 1.344-1.661zM5.695 1.966a.54.54 0 01-.195.036V-.135c-.207 0-.403.04-.579.108l.774 1.993zm-.195.036h13V-.135h-13v2.137zm13 7.198h-13v2.137h13V9.2zm-13 0c.244 0 .569.2.569.602H3.93c0 .916.773 1.535 1.569 1.535V9.2zm.569.602V1.956H3.93v7.846H6.07zM4.328 2.787L11 8.185l1.345-1.662-6.673-5.398-1.344 1.662zM11 8.186c.296.239.654.35.999.35V6.4c.112 0 .236.036.344.123L11 8.186zm.999.35a1.59 1.59 0 001-.35l-1.344-1.663A.548.548 0 0112 6.399v2.138zm1-.351l6.672-5.398-1.344-1.662-6.673 5.398L13 8.185zm4.931-6.23v7.847h2.138V1.956H17.93zm0 7.847c0-.401.325-.602.569-.602v2.137c.796 0 1.569-.62 1.569-1.535H17.93z" fill="#000" mask="url(#a)"/><path d="M18.692.97l.672.83L20.796.641 19.08-.026l-.387.996zM12 6.384l-.672.83.672.544.672-.544-.672-.83zM5.308.97l-.387-.997-1.718.668L4.636 1.8 5.308.97zM5 1.956l.672-.831-1.74-1.409v2.24H5zm6.672 5.398l-.672.83v.002l.672-.832zm.656 0l.671.831-.671-.831zM19 1.956h1.069v-2.24l-1.741 1.409.672.83zm0 7.846h1.069H19zm-.5-10.87h-13v2.137h13V-1.07zm-13 0C4.153-1.069 2.931-.03 2.931 1.4H5.07c0-.114.124-.331.431-.331V-1.07zM2.931 1.4v8.402H5.07V1.4H2.93zm0 8.402c0 1.43 1.222 2.469 2.569 2.469v-2.138c-.307 0-.431-.217-.431-.331H2.93zM5.5 12.27h13v-2.138h-13v2.138zm13 0c1.347 0 2.569-1.039 2.569-2.47H18.93c0 .115-.124.332-.431.332v2.138zm2.569-2.47v-8.4H18.93v8.4h2.138zm0-8.4c0-1.431-1.222-2.47-2.569-2.47V1.07c.307 0 .431.217.431.331h2.138zm-2.569.601a.541.541 0 01-.196-.036l.775-1.992a1.596 1.596 0 00-.579-.11v2.138zM18.02.14l-6.692 5.414 1.344 1.661L19.364 1.8 18.019.14zm-5.348 5.414L5.981.139 4.636 1.8l6.692 5.413 1.344-1.661zM5.695 1.966a.54.54 0 01-.195.036V-.135c-.207 0-.403.04-.579.108l.774 1.993zm-.195.036h13V-.135h-13v2.137zm13 7.198h-13v2.137h13V9.2zm-13 0c.244 0 .569.2.569.602H3.93c0 .916.773 1.535 1.569 1.535V9.2zm.569.602V1.956H3.93v7.846H6.07zM4.328 2.787L11 8.185l1.345-1.662-6.673-5.398-1.344 1.662zM11 8.186c.296.239.654.35.999.35V6.4c.112 0 .236.036.344.123L11 8.186zm.999.35a1.59 1.59 0 001-.35l-1.344-1.663A.548.548 0 0112 6.399v2.138zm1-.351l6.672-5.398-1.344-1.662-6.673 5.398L13 8.185zm4.931-6.23v7.847h2.138V1.956H17.93zm0 7.847c0-.401.325-.602.569-.602v2.137c.796 0 1.569-.62 1.569-1.535H17.93z" fill="url(#paint0_linear)" mask="url(#a)"/><path d="M18.692.97l.672.83L20.796.641 19.08-.026l-.387.996zM12 6.384l-.672.83.672.544.672-.544-.672-.83zM5.308.97l-.387-.997-1.718.668L4.636 1.8 5.308.97zM5 1.956l.672-.831-1.74-1.409v2.24H5zm6.672 5.398l-.672.83v.002l.672-.832zm.656 0l.671.831-.671-.831zM19 1.956h1.069v-2.24l-1.741 1.409.672.83zm0 7.846h1.069H19zm-.5-10.87h-13v2.137h13V-1.07zm-13 0C4.153-1.069 2.931-.03 2.931 1.4H5.07c0-.114.124-.331.431-.331V-1.07zM2.931 1.4v8.402H5.07V1.4H2.93zm0 8.402c0 1.43 1.222 2.469 2.569 2.469v-2.138c-.307 0-.431-.217-.431-.331H2.93zM5.5 12.27h13v-2.138h-13v2.138zm13 0c1.347 0 2.569-1.039 2.569-2.47H18.93c0 .115-.124.332-.431.332v2.138zm2.569-2.47v-8.4H18.93v8.4h2.138zm0-8.4c0-1.431-1.222-2.47-2.569-2.47V1.07c.307 0 .431.217.431.331h2.138zm-2.569.601a.541.541 0 01-.196-.036l.775-1.992a1.596 1.596 0 00-.579-.11v2.138zM18.02.14l-6.692 5.414 1.344 1.661L19.364 1.8 18.019.14zm-5.348 5.414L5.981.139 4.636 1.8l6.692 5.413 1.344-1.661zM5.695 1.966a.54.54 0 01-.195.036V-.135c-.207 0-.403.04-.579.108l.774 1.993zm-.195.036h13V-.135h-13v2.137zm13 7.198h-13v2.137h13V9.2zm-13 0c.244 0 .569.2.569.602H3.93c0 .916.773 1.535 1.569 1.535V9.2zm.569.602V1.956H3.93v7.846H6.07zM4.328 2.787L11 8.185l1.345-1.662-6.673-5.398-1.344 1.662zM11 8.186c.296.239.654.35.999.35V6.4c.112 0 .236.036.344.123L11 8.186zm.999.35a1.59 1.59 0 001-.35l-1.344-1.663A.548.548 0 0112 6.399v2.138zm1-.351l6.672-5.398-1.344-1.662-6.673 5.398L13 8.185zm4.931-6.23v7.847h2.138V1.956H17.93zm0 7.847c0-.401.325-.602.569-.602v2.137c.796 0 1.569-.62 1.569-1.535H17.93z" fill="url(#paint1_linear)" mask="url(#a)"/><path d="M18.692.97l.672.83L20.796.641 19.08-.026l-.387.996zM12 6.384l-.672.83.672.544.672-.544-.672-.83zM5.308.97l-.387-.997-1.718.668L4.636 1.8 5.308.97zM5 1.956l.672-.831-1.74-1.409v2.24H5zm6.672 5.398l-.672.83v.002l.672-.832zm.656 0l.671.831-.671-.831zM19 1.956h1.069v-2.24l-1.741 1.409.672.83zm0 7.846h1.069H19zm-.5-10.87h-13v2.137h13V-1.07zm-13 0C4.153-1.069 2.931-.03 2.931 1.4H5.07c0-.114.124-.331.431-.331V-1.07zM2.931 1.4v8.402H5.07V1.4H2.93zm0 8.402c0 1.43 1.222 2.469 2.569 2.469v-2.138c-.307 0-.431-.217-.431-.331H2.93zM5.5 12.27h13v-2.138h-13v2.138zm13 0c1.347 0 2.569-1.039 2.569-2.47H18.93c0 .115-.124.332-.431.332v2.138zm2.569-2.47v-8.4H18.93v8.4h2.138zm0-8.4c0-1.431-1.222-2.47-2.569-2.47V1.07c.307 0 .431.217.431.331h2.138zm-2.569.601a.541.541 0 01-.196-.036l.775-1.992a1.596 1.596 0 00-.579-.11v2.138zM18.02.14l-6.692 5.414 1.344 1.661L19.364 1.8 18.019.14zm-5.348 5.414L5.981.139 4.636 1.8l6.692 5.413 1.344-1.661zM5.695 1.966a.54.54 0 01-.195.036V-.135c-.207 0-.403.04-.579.108l.774 1.993zm-.195.036h13V-.135h-13v2.137zm13 7.198h-13v2.137h13V9.2zm-13 0c.244 0 .569.2.569.602H3.93c0 .916.773 1.535 1.569 1.535V9.2zm.569.602V1.956H3.93v7.846H6.07zM4.328 2.787L11 8.185l1.345-1.662-6.673-5.398-1.344 1.662zM11 8.186c.296.239.654.35.999.35V6.4c.112 0 .236.036.344.123L11 8.186zm.999.35a1.59 1.59 0 001-.35l-1.344-1.663A.548.548 0 0112 6.399v2.138zm1-.351l6.672-5.398-1.344-1.662-6.673 5.398L13 8.185zm4.931-6.23v7.847h2.138V1.956H17.93zm0 7.847c0-.401.325-.602.569-.602v2.137c.796 0 1.569-.62 1.569-1.535H17.93z" fill="url(#paint2_linear)" mask="url(#a)"/></g><defs><linearGradient id="paint0_linear" x1="12" y1="0" x2="12" y2="11.202" gradientUnits="userSpaceOnUse"><stop stop-color="#fff"/><stop offset="1" stop-color="#fff" stop-opacity="0"/></linearGradient><linearGradient id="paint1_linear" x1="12" y1="0" x2="12" y2="11.202" gradientUnits="userSpaceOnUse"><stop stop-color="#fff"/><stop offset="1" stop-color="#fff" stop-opacity="0"/></linearGradient><linearGradient id="paint2_linear" x1="12" y1="0" x2="12" y2="11.202" gradientUnits="userSpaceOnUse"><stop stop-color="#fff"/><stop offset="1" stop-color="#fff" stop-opacity="0"/></linearGradient><filter id="filter0_d" x="0" y="0" width="24" height="19.202" filterUnits="userSpaceOnUse" color-interpolation-filters="sRGB"><feFlood flood-opacity="0" result="BackgroundImageFix"/><feColorMatrix in="SourceAlpha" values="0 0 0 0 0 0 0 0 0 0 0 0 0 0 0 0 0 0 127 0"/><feOffset dy="4"/><feGaussianBlur stdDeviation="2"/><feColorMatrix values="0 0 0 0 0 0 0 0 0 0 0 0 0 0 0 0 0 0 0.25 0"/><feBlend in2="BackgroundImageFix" result="effect1_dropShadow"/><feBlend in="SourceGraphic" in2="effect1_dropShadow" result="shape"/></filter></defs></svg>